<svg xmlns="http://www.w3.org/2000/svg" xmlns:xlink="http://www.w3.org/1999/xlink" width="145" zoomAndPan="magnify" viewBox="0 0 108.75 172.499995" height="230" preserveAspectRatio="xMidYMid meet" version="1.0"><defs><clipPath id="65a6ccfefe"><path d="M 2 0 L 107 0 L 107 171.253906 L 2 171.253906 Z M 2 0 " clip-rule="nonzero"/></clipPath><clipPath id="9d036c8500"><path d="M 70.332031 45.238281 L 75.011719 45.238281 L 75.011719 49.917969 L 70.332031 49.917969 Z M 70.332031 45.238281 " clip-rule="nonzero"/></clipPath><clipPath id="7ee69428a0"><path d="M 72.671875 45.238281 C 71.378906 45.238281 70.332031 46.285156 70.332031 47.578125 C 70.332031 48.871094 71.378906 49.917969 72.671875 49.917969 C 73.964844 49.917969 75.011719 48.871094 75.011719 47.578125 C 75.011719 46.285156 73.964844 45.238281 72.671875 45.238281 Z M 72.671875 45.238281 " clip-rule="nonzero"/></clipPath></defs><path fill="#3f7776" d="M 31.152344 67.683594 C 31.839844 72.105469 33.449219 75.601562 35.957031 78.125 C 39.449219 81.636719 44.195312 82.84375 47.8125 83.214844 C 47.210938 79.070312 45.6875 75.730469 43.257812 73.238281 C 39.753906 69.644531 34.828125 68.230469 31.152344 67.683594 Z M 31.152344 67.683594 " fill-opacity="1" fill-rule="nonzero"/><path fill="#3f7776" d="M 54.097656 33.542969 C 51.722656 36.789062 48.988281 41.753906 48.996094 47.394531 C 48.996094 51.917969 50.800781 56.351562 54.363281 60.625 C 56.710938 57.703125 59.46875 53.160156 59.65625 47.785156 C 59.820312 43.050781 57.957031 38.277344 54.097656 33.542969 Z M 54.097656 33.542969 " fill-opacity="1" fill-rule="nonzero"/><g clip-path="url(#65a6ccfefe)"><path fill="#3f7776" d="M 99.820312 81.582031 C 106.753906 67.535156 108.4375 50.515625 103.613281 35.480469 C 96.722656 14.003906 76.097656 0.945312 55.9375 0.28125 C 55.367188 0.265625 54.796875 0.253906 54.222656 0.253906 C 41.984375 0.253906 29.027344 4.523438 19.628906 13.175781 C 5.015625 26.625 0.0742188 46.597656 3.195312 66.050781 C 5.8125 82.382812 19.136719 93.546875 24.269531 108.753906 C 26.738281 116.066406 26.601562 124.433594 26.46875 132.335938 C 21.589844 132.378906 17.644531 135.941406 17.644531 140.335938 C 17.644531 144.644531 21.433594 148.144531 26.175781 148.324219 C 25.839844 149.164062 25.648438 150.066406 25.648438 151.011719 C 25.648438 155.429688 29.667969 159.015625 34.628906 159.015625 L 35.507812 159.015625 C 34.757812 160.195312 34.320312 161.558594 34.320312 163.019531 C 34.320312 167.4375 38.269531 171.023438 43.132812 171.023438 L 65.527344 171.023438 C 70.394531 171.023438 74.34375 167.4375 74.34375 163.019531 C 74.34375 161.558594 73.90625 160.195312 73.152344 159.015625 L 74.03125 159.015625 C 78.992188 159.015625 83.015625 155.429688 83.015625 151.011719 C 83.015625 150.066406 82.820312 149.164062 82.484375 148.324219 C 87.230469 148.144531 91.019531 144.644531 91.019531 140.335938 C 91.019531 135.933594 87.0625 132.363281 82.167969 132.335938 C 82.167969 127.195312 82.167969 120.191406 82.167969 120.1875 C 82.171875 105.355469 93.679688 94.039062 99.820312 81.582031 Z M 65.527344 165.6875 L 43.132812 165.6875 C 41.25 165.6875 39.65625 164.464844 39.65625 163.019531 C 39.65625 161.570312 41.25 160.347656 43.132812 160.347656 L 65.527344 160.347656 C 67.414062 160.347656 69.007812 161.570312 69.007812 163.019531 C 69.007812 164.464844 67.414062 165.6875 65.527344 165.6875 Z M 74.03125 153.679688 L 34.628906 153.679688 C 32.652344 153.679688 30.984375 152.457031 30.984375 151.011719 C 30.984375 149.5625 32.652344 148.34375 34.628906 148.34375 L 74.03125 148.34375 C 76.007812 148.34375 77.679688 149.5625 77.679688 151.011719 C 77.679688 152.457031 76.007812 153.679688 74.03125 153.679688 Z M 85.683594 140.335938 C 85.683594 141.785156 84.046875 143.003906 82.109375 143.003906 L 26.554688 143.003906 C 24.617188 143.003906 22.980469 141.785156 22.980469 140.335938 C 22.980469 138.890625 24.617188 137.667969 26.554688 137.667969 L 82.109375 137.667969 C 84.046875 137.667969 85.683594 138.890625 85.683594 140.335938 Z M 58.433594 104.316406 C 57.878906 104.316406 57.402344 104.300781 57 104.28125 L 57 133.667969 C 57 135.140625 55.804688 136.335938 54.332031 136.335938 C 52.859375 136.335938 51.664062 135.140625 51.664062 133.667969 L 51.664062 88.679688 C 51.363281 88.6875 51.035156 88.695312 50.671875 88.695312 C 43.585938 88.695312 25.285156 86.347656 25.425781 62.050781 C 25.425781 62.050781 25.929688 62.011719 26.796875 62.011719 C 31.425781 62.011719 46.476562 63.097656 51.664062 76.785156 L 51.664062 65.601562 C 32.445312 44.921875 53.960938 25.601562 53.960938 25.601562 C 73.277344 43.824219 62.515625 59.746094 57 65.746094 L 57 93.714844 C 61.703125 78.792969 77.539062 77.632812 82.308594 77.632812 C 83.175781 77.632812 83.679688 77.671875 83.679688 77.671875 C 83.824219 101.964844 65.519531 104.316406 58.433594 104.316406 Z M 58.433594 104.316406 " fill-opacity="1" fill-rule="nonzero"/></g><path fill="#3f7776" d="M 61.292969 98.835938 C 64.914062 98.464844 69.65625 97.257812 73.148438 93.746094 C 75.65625 91.222656 77.265625 87.722656 77.957031 83.304688 C 74.277344 83.851562 69.351562 85.265625 65.847656 88.859375 C 63.417969 91.347656 61.894531 94.691406 61.292969 98.835938 Z M 61.292969 98.835938 " fill-opacity="1" fill-rule="nonzero"/><g clip-path="url(#9d036c8500)"><g clip-path="url(#7ee69428a0)"><path fill="#3f7776" d="M 70.332031 45.238281 L 75.011719 45.238281 L 75.011719 49.917969 L 70.332031 49.917969 Z M 70.332031 45.238281 " fill-opacity="1" fill-rule="nonzero"/></g></g></svg>