<svg xmlns="http://www.w3.org/2000/svg" xmlns:xlink="http://www.w3.org/1999/xlink" width="826" zoomAndPan="magnify" viewBox="0 0 619.5 215.249992" height="287" preserveAspectRatio="xMidYMid meet" version="1.0"><defs><g/><clipPath id="8859d21a71"><path d="M 570 50 L 585 50 L 585 68 L 570 68 Z M 570 50 " clip-rule="nonzero"/></clipPath><clipPath id="8ae05f4416"><path d="M 557.03125 29.660156 L 613.78125 73.5625 L 593.65625 99.574219 L 536.90625 55.667969 Z M 557.03125 29.660156 " clip-rule="nonzero"/></clipPath><clipPath id="52093cd8d3"><path d="M 557.03125 29.660156 L 613.78125 73.5625 L 593.65625 99.574219 L 536.90625 55.667969 Z M 557.03125 29.660156 " clip-rule="nonzero"/></clipPath><clipPath id="83c64f1e5e"><path d="M 561 49 L 566 49 L 566 64 L 561 64 Z M 561 49 " clip-rule="nonzero"/></clipPath><clipPath id="12bf5f56fb"><path d="M 557.03125 29.660156 L 613.78125 73.5625 L 593.65625 99.574219 L 536.90625 55.667969 Z M 557.03125 29.660156 " clip-rule="nonzero"/></clipPath><clipPath id="013864857f"><path d="M 557.03125 29.660156 L 613.78125 73.5625 L 593.65625 99.574219 L 536.90625 55.667969 Z M 557.03125 29.660156 " clip-rule="nonzero"/></clipPath><clipPath id="f51b340664"><path d="M 575 68 L 590 68 L 590 76 L 575 76 Z M 575 68 " clip-rule="nonzero"/></clipPath><clipPath id="462e78ff3f"><path d="M 557.03125 29.660156 L 613.78125 73.5625 L 593.65625 99.574219 L 536.90625 55.667969 Z M 557.03125 29.660156 " clip-rule="nonzero"/></clipPath><clipPath id="28ffbf2426"><path d="M 557.03125 29.660156 L 613.78125 73.5625 L 593.65625 99.574219 L 536.90625 55.667969 Z M 557.03125 29.660156 " clip-rule="nonzero"/></clipPath><clipPath id="e5aa2fc4df"><path d="M 546 44 L 553 44 L 553 65 L 546 65 Z M 546 44 " clip-rule="nonzero"/></clipPath><clipPath id="1ee305f7ce"><path d="M 557.03125 29.660156 L 613.78125 73.5625 L 593.65625 99.574219 L 536.90625 55.667969 Z M 557.03125 29.660156 " clip-rule="nonzero"/></clipPath><clipPath id="3eabff3d61"><path d="M 557.03125 29.660156 L 613.78125 73.5625 L 593.65625 99.574219 L 536.90625 55.667969 Z M 557.03125 29.660156 " clip-rule="nonzero"/></clipPath><clipPath id="7600553103"><path d="M 577 82 L 603 82 L 603 88 L 577 88 Z M 577 82 " clip-rule="nonzero"/></clipPath><clipPath id="784a596c91"><path d="M 557.03125 29.660156 L 613.78125 73.5625 L 593.65625 99.574219 L 536.90625 55.667969 Z M 557.03125 29.660156 " clip-rule="nonzero"/></clipPath><clipPath id="b872bebb51"><path d="M 557.03125 29.660156 L 613.78125 73.5625 L 593.65625 99.574219 L 536.90625 55.667969 Z M 557.03125 29.660156 " clip-rule="nonzero"/></clipPath><clipPath id="499cbcf562"><path d="M 396 80.691406 L 400 80.691406 L 400 88 L 396 88 Z M 396 80.691406 " clip-rule="nonzero"/></clipPath><clipPath id="d74cbc793b"><path d="M 375.636719 87 L 410 87 L 410 107.597656 L 375.636719 107.597656 Z M 375.636719 87 " clip-rule="nonzero"/></clipPath><clipPath id="b3be6a2928"><path d="M 484 141 L 551 141 L 551 183 L 484 183 Z M 484 141 " clip-rule="nonzero"/></clipPath><clipPath id="a6444ad76a"><path d="M 509.21875 125.460938 L 551.300781 160.1875 L 516.09375 202.84375 L 474.015625 168.117188 Z M 509.21875 125.460938 " clip-rule="nonzero"/></clipPath><clipPath id="0ad81b785b"><path d="M 509.21875 125.460938 L 551.300781 160.1875 L 516.09375 202.84375 L 474.015625 168.117188 Z M 509.21875 125.460938 " clip-rule="nonzero"/></clipPath></defs><g fill="#3f7776" fill-opacity="1"><g transform="translate(109.099947, 127.679259)"><g><path d="M 33.71875 -69.5 C 39.15625 -69.5 44.035156 -68.195312 48.359375 -65.59375 C 52.691406 -63 55.828125 -59.535156 57.765625 -55.203125 C 58.003906 -54.734375 58.125 -54.226562 58.125 -53.6875 C 58.125 -52.71875 57.769531 -51.878906 57.0625 -51.171875 C 56.363281 -50.472656 55.523438 -50.125 54.546875 -50.125 C 53.878906 -50.125 53.21875 -50.332031 52.5625 -50.75 C 51.90625 -51.164062 51.460938 -51.675781 51.234375 -52.28125 C 49.859375 -55.375 47.597656 -57.816406 44.453125 -59.609375 C 41.316406 -61.398438 37.738281 -62.296875 33.71875 -62.296875 C 30.664062 -62.296875 27.6875 -61.851562 24.78125 -60.96875 C 21.882812 -60.082031 19.378906 -58.644531 17.265625 -56.65625 C 15.148438 -54.675781 14.09375 -52.347656 14.09375 -49.671875 C 14.09375 -48.359375 14.367188 -47.164062 14.921875 -46.09375 C 15.472656 -45.019531 16.132812 -44.101562 16.90625 -43.34375 C 17.675781 -42.59375 18.757812 -41.890625 20.15625 -41.234375 C 21.550781 -40.585938 22.789062 -40.078125 23.875 -39.703125 C 24.96875 -39.335938 26.410156 -38.96875 28.203125 -38.59375 C 30.003906 -38.226562 31.40625 -37.96875 32.40625 -37.8125 C 33.414062 -37.664062 34.789062 -37.472656 36.53125 -37.234375 C 37.207031 -37.140625 37.695312 -37.070312 38 -37.03125 C 53.03125 -34.988281 60.546875 -28.984375 60.546875 -19.015625 C 60.546875 -16.367188 60 -13.921875 58.90625 -11.671875 C 57.8125 -9.421875 56.359375 -7.523438 54.546875 -5.984375 C 52.734375 -4.441406 50.648438 -3.117188 48.296875 -2.015625 C 45.953125 -0.910156 43.546875 -0.109375 41.078125 0.390625 C 38.617188 0.898438 36.164062 1.15625 33.71875 1.15625 C 27.476562 1.15625 21.882812 -0.257812 16.9375 -3.09375 C 11.988281 -5.925781 8.457031 -9.757812 6.34375 -14.59375 C 6.132812 -15.132812 6.03125 -15.617188 6.03125 -16.046875 C 6.03125 -17.023438 6.382812 -17.863281 7.09375 -18.5625 C 7.800781 -19.269531 8.640625 -19.625 9.609375 -19.625 C 10.242188 -19.625 10.890625 -19.40625 11.546875 -18.96875 C 12.203125 -18.53125 12.664062 -18.007812 12.9375 -17.40625 C 14.507812 -13.820312 17.140625 -11.003906 20.828125 -8.953125 C 24.523438 -6.910156 28.820312 -5.890625 33.71875 -5.890625 C 35.96875 -5.890625 38.207031 -6.15625 40.4375 -6.6875 C 42.664062 -7.226562 44.769531 -8 46.75 -9 C 48.726562 -10.007812 50.335938 -11.382812 51.578125 -13.125 C 52.816406 -14.875 53.4375 -16.835938 53.4375 -19.015625 C 53.4375 -20.566406 53.082031 -21.941406 52.375 -23.140625 C 51.675781 -24.347656 50.820312 -25.320312 49.8125 -26.0625 C 48.8125 -26.800781 47.515625 -27.445312 45.921875 -28 C 44.328125 -28.550781 42.882812 -28.953125 41.59375 -29.203125 C 40.300781 -29.460938 38.78125 -29.707031 37.03125 -29.9375 C 35.125 -30.207031 33.609375 -30.425781 32.484375 -30.59375 C 31.359375 -30.757812 29.847656 -31.023438 27.953125 -31.390625 C 26.054688 -31.765625 24.507812 -32.128906 23.3125 -32.484375 C 22.125 -32.835938 20.71875 -33.304688 19.09375 -33.890625 C 17.46875 -34.484375 16.132812 -35.101562 15.09375 -35.75 C 14.050781 -36.40625 12.957031 -37.210938 11.8125 -38.171875 C 10.675781 -39.128906 9.78125 -40.148438 9.125 -41.234375 C 8.476562 -42.328125 7.941406 -43.59375 7.515625 -45.03125 C 7.097656 -46.476562 6.890625 -48.039062 6.890625 -49.71875 C 6.890625 -52.800781 7.703125 -55.625 9.328125 -58.1875 C 10.960938 -60.757812 13.085938 -62.847656 15.703125 -64.453125 C 18.316406 -66.066406 21.179688 -67.3125 24.296875 -68.1875 C 27.421875 -69.0625 30.5625 -69.5 33.71875 -69.5 Z M 33.71875 -69.5 "/></g></g></g><g fill="#3f7776" fill-opacity="1"><g transform="translate(177.72926, 127.679259)"><g><path d="M 13.84375 -62.09375 C 13.84375 -63.132812 14.207031 -64.023438 14.9375 -64.765625 C 15.675781 -65.503906 16.566406 -65.875 17.609375 -65.875 C 18.648438 -65.875 19.539062 -65.503906 20.28125 -64.765625 C 21.019531 -64.023438 21.390625 -63.132812 21.390625 -62.09375 L 21.34375 -50.828125 L 31.15625 -50.78125 C 32.125 -50.78125 32.953125 -50.4375 33.640625 -49.75 C 34.328125 -49.0625 34.671875 -48.226562 34.671875 -47.25 C 34.671875 -46.28125 34.328125 -45.453125 33.640625 -44.765625 C 32.953125 -44.078125 32.125 -43.734375 31.15625 -43.734375 L 21.34375 -43.78125 L 21.28125 -12.375 C 21.28125 -10.394531 21.570312 -8.910156 22.15625 -7.921875 C 22.75 -6.929688 23.816406 -6.4375 25.359375 -6.4375 C 26.367188 -6.4375 27.578125 -6.710938 28.984375 -7.265625 C 30.390625 -7.828125 31.5 -8.109375 32.3125 -8.109375 C 33.351562 -8.109375 34.238281 -7.738281 34.96875 -7 C 35.707031 -6.257812 36.078125 -5.367188 36.078125 -4.328125 C 36.078125 -3.015625 35.445312 -1.921875 34.1875 -1.046875 C 32.9375 -0.179688 31.570312 0.398438 30.09375 0.703125 C 28.613281 1.003906 27.140625 1.15625 25.671875 1.15625 C 21.804688 1.15625 18.847656 -0.0703125 16.796875 -2.53125 C 14.753906 -5 13.734375 -8.316406 13.734375 -12.484375 L 13.78125 -43.734375 L 6.03125 -43.734375 C 5.0625 -43.734375 4.234375 -44.078125 3.546875 -44.765625 C 2.859375 -45.453125 2.515625 -46.28125 2.515625 -47.25 C 2.515625 -48.226562 2.859375 -49.0625 3.546875 -49.75 C 4.234375 -50.4375 5.0625 -50.78125 6.03125 -50.78125 L 13.78125 -50.78125 Z M 13.84375 -62.09375 "/></g></g></g><g fill="#3f7776" fill-opacity="1"><g transform="translate(218.38287, 127.679259)"><g><path d="M 29.640625 -51.578125 C 32.890625 -51.578125 35.90625 -50.679688 38.6875 -48.890625 C 41.476562 -47.097656 44.195312 -44.757812 46.84375 -41.875 L 47.296875 -48.203125 C 47.296875 -49.210938 47.570312 -50.050781 48.125 -50.71875 C 48.6875 -51.394531 49.4375 -51.734375 50.375 -51.734375 C 51.34375 -51.734375 52.171875 -51.390625 52.859375 -50.703125 C 53.546875 -50.015625 53.890625 -49.179688 53.890625 -48.203125 L 53.890625 -2.71875 C 53.890625 -1.75 53.546875 -0.914062 52.859375 -0.21875 C 52.171875 0.46875 51.34375 0.8125 50.375 0.8125 C 49.40625 0.8125 48.570312 0.46875 47.875 -0.21875 C 47.1875 -0.914062 46.84375 -1.75 46.84375 -2.71875 L 46.84375 -8.453125 C 44.332031 -5.703125 41.566406 -3.4375 38.546875 -1.65625 C 35.523438 0.113281 32.472656 1 29.390625 1 C 24.929688 1 20.8125 -0.222656 17.03125 -2.671875 C 13.257812 -5.117188 10.316406 -8.347656 8.203125 -12.359375 C 6.085938 -16.367188 5.03125 -20.65625 5.03125 -25.21875 C 5.03125 -29.78125 6.085938 -34.070312 8.203125 -38.09375 C 10.316406 -42.125 13.273438 -45.378906 17.078125 -47.859375 C 20.890625 -50.335938 25.078125 -51.578125 29.640625 -51.578125 Z M 47.109375 -25.515625 C 47.109375 -30.441406 45.394531 -34.757812 41.96875 -38.46875 C 38.550781 -42.175781 34.457031 -44.03125 29.6875 -44.03125 C 24.894531 -44.03125 20.84375 -42.140625 17.53125 -38.359375 C 14.226562 -34.585938 12.578125 -30.207031 12.578125 -25.21875 C 12.578125 -21.988281 13.296875 -18.945312 14.734375 -16.09375 C 16.179688 -13.25 18.210938 -10.945312 20.828125 -9.1875 C 23.453125 -7.425781 26.304688 -6.546875 29.390625 -6.546875 C 32.503906 -6.546875 35.4375 -7.441406 38.1875 -9.234375 C 40.945312 -11.023438 43.125 -13.378906 44.71875 -16.296875 C 46.3125 -19.222656 47.109375 -22.296875 47.109375 -25.515625 Z M 47.109375 -25.515625 "/></g></g></g><g fill="#3f7776" fill-opacity="1"><g transform="translate(280.370475, 127.679259)"><g><path d="M 35.671875 -46.75 C 35.671875 -45.84375 35.367188 -45.003906 34.765625 -44.234375 C 34.171875 -43.460938 33.519531 -43.078125 32.8125 -43.078125 C 32.132812 -43.078125 31.140625 -43.316406 29.828125 -43.796875 C 28.523438 -44.285156 27.421875 -44.53125 26.515625 -44.53125 C 24.140625 -44.53125 22.085938 -44.128906 20.359375 -43.328125 C 18.628906 -42.523438 17.285156 -41.414062 16.328125 -40 C 15.367188 -38.59375 14.671875 -37.066406 14.234375 -35.421875 C 13.804688 -33.785156 13.59375 -31.992188 13.59375 -30.046875 L 13.59375 -2.609375 C 13.59375 -1.503906 13.265625 -0.59375 12.609375 0.125 C 11.953125 0.84375 11.019531 1.203125 9.8125 1.203125 C 8.601562 1.203125 7.671875 0.84375 7.015625 0.125 C 6.359375 -0.59375 6.03125 -1.503906 6.03125 -2.609375 L 6.03125 -47.25 C 6.03125 -48.425781 6.425781 -49.414062 7.21875 -50.21875 C 8.007812 -51.03125 8.90625 -51.4375 9.90625 -51.4375 C 10.882812 -51.4375 11.679688 -51.046875 12.296875 -50.265625 C 12.921875 -49.492188 13.234375 -48.488281 13.234375 -47.25 L 13.6875 -41.71875 C 14.394531 -44.132812 16.015625 -46.390625 18.546875 -48.484375 C 21.078125 -50.578125 23.648438 -51.625 26.265625 -51.625 C 32.535156 -51.625 35.671875 -50 35.671875 -46.75 Z M 35.671875 -46.75 "/></g></g></g><g fill="#3f7776" fill-opacity="1"><g transform="translate(318.60891, 127.679259)"><g><path d="M 13.84375 -62.09375 C 13.84375 -63.132812 14.207031 -64.023438 14.9375 -64.765625 C 15.675781 -65.503906 16.566406 -65.875 17.609375 -65.875 C 18.648438 -65.875 19.539062 -65.503906 20.28125 -64.765625 C 21.019531 -64.023438 21.390625 -63.132812 21.390625 -62.09375 L 21.34375 -50.828125 L 31.15625 -50.78125 C 32.125 -50.78125 32.953125 -50.4375 33.640625 -49.75 C 34.328125 -49.0625 34.671875 -48.226562 34.671875 -47.25 C 34.671875 -46.28125 34.328125 -45.453125 33.640625 -44.765625 C 32.953125 -44.078125 32.125 -43.734375 31.15625 -43.734375 L 21.34375 -43.78125 L 21.28125 -12.375 C 21.28125 -10.394531 21.570312 -8.910156 22.15625 -7.921875 C 22.75 -6.929688 23.816406 -6.4375 25.359375 -6.4375 C 26.367188 -6.4375 27.578125 -6.710938 28.984375 -7.265625 C 30.390625 -7.828125 31.5 -8.109375 32.3125 -8.109375 C 33.351562 -8.109375 34.238281 -7.738281 34.96875 -7 C 35.707031 -6.257812 36.078125 -5.367188 36.078125 -4.328125 C 36.078125 -3.015625 35.445312 -1.921875 34.1875 -1.046875 C 32.9375 -0.179688 31.570312 0.398438 30.09375 0.703125 C 28.613281 1.003906 27.140625 1.15625 25.671875 1.15625 C 21.804688 1.15625 18.847656 -0.0703125 16.796875 -2.53125 C 14.753906 -5 13.734375 -8.316406 13.734375 -12.484375 L 13.78125 -43.734375 L 6.03125 -43.734375 C 5.0625 -43.734375 4.234375 -44.078125 3.546875 -44.765625 C 2.859375 -45.453125 2.515625 -46.28125 2.515625 -47.25 C 2.515625 -48.226562 2.859375 -49.0625 3.546875 -49.75 C 4.234375 -50.4375 5.0625 -50.78125 6.03125 -50.78125 L 13.78125 -50.78125 Z M 13.84375 -62.09375 "/></g></g></g><g fill="#6ada98" fill-opacity="1"><g transform="translate(359.267327, 127.679259)"><g><path d="M 56.671875 -35.03125 C 56.671875 -39.820312 55.878906 -43.988281 54.296875 -47.53125 C 52.722656 -51.070312 50.453125 -53.914062 47.484375 -56.0625 C 44.515625 -58.207031 41.023438 -59.765625 37.015625 -60.734375 C 33.003906 -61.710938 28.46875 -62.148438 23.40625 -62.046875 L 13.890625 -61.84375 L 13.59375 -7.25 L 27.28125 -7.140625 C 36.96875 -7.003906 44.285156 -9.269531 49.234375 -13.9375 C 54.191406 -18.601562 56.671875 -25.632812 56.671875 -35.03125 Z M 27.78125 -69.640625 C 32.539062 -69.679688 36.90625 -69.035156 40.875 -67.703125 C 44.851562 -66.378906 48.226562 -64.566406 51 -62.265625 C 53.769531 -59.972656 56.109375 -57.289062 58.015625 -54.21875 C 59.929688 -51.15625 61.34375 -47.910156 62.25 -44.484375 C 63.15625 -41.066406 63.609375 -37.546875 63.609375 -33.921875 C 63.609375 -30.460938 63.195312 -27.085938 62.375 -23.796875 C 61.550781 -20.515625 60.304688 -17.421875 58.640625 -14.515625 C 56.984375 -11.617188 54.988281 -9.078125 52.65625 -6.890625 C 50.332031 -4.710938 47.550781 -2.992188 44.3125 -1.734375 C 41.070312 -0.472656 37.570312 0.171875 33.8125 0.203125 L 9.765625 0.09375 C 8.722656 0.0625 7.835938 -0.296875 7.109375 -0.984375 C 6.390625 -1.671875 6.03125 -2.515625 6.03125 -3.515625 L 6.390625 -65.578125 C 6.390625 -66.578125 6.75 -67.476562 7.46875 -68.28125 C 8.195312 -69.09375 9.0625 -69.515625 10.0625 -69.546875 Z M 27.78125 -69.640625 "/></g></g></g><g fill="#6ada98" fill-opacity="1"><g transform="translate(429.959595, 127.679259)"><g><path d="M 14.296875 -60.78125 C 13.222656 -59.75 11.945312 -59.234375 10.46875 -59.234375 C 8.988281 -59.234375 7.710938 -59.75 6.640625 -60.78125 C 5.566406 -61.820312 5.03125 -63.082031 5.03125 -64.5625 C 5.03125 -66.039062 5.566406 -67.300781 6.640625 -68.34375 C 7.710938 -69.382812 8.988281 -69.90625 10.46875 -69.90625 C 11.945312 -69.90625 13.222656 -69.382812 14.296875 -68.34375 C 15.367188 -67.300781 15.90625 -66.039062 15.90625 -64.5625 C 15.90625 -63.082031 15.367188 -61.820312 14.296875 -60.78125 Z M 6.796875 -48.3125 C 6.796875 -49.144531 7.179688 -49.894531 7.953125 -50.5625 C 8.722656 -51.238281 9.492188 -51.578125 10.265625 -51.578125 C 11.441406 -51.578125 12.414062 -51.222656 13.1875 -50.515625 C 13.957031 -49.816406 14.34375 -48.894531 14.34375 -47.75 L 14.4375 -2.609375 C 14.4375 -1.578125 14.066406 -0.691406 13.328125 0.046875 C 12.597656 0.785156 11.710938 1.15625 10.671875 1.15625 C 9.628906 1.15625 8.738281 0.785156 8 0.046875 C 7.257812 -0.691406 6.890625 -1.597656 6.890625 -2.671875 Z M 6.796875 -48.3125 "/></g></g></g><g fill="#6ada98" fill-opacity="1"><g transform="translate(453.958605, 127.679259)"><g><path d="M 31.09375 1 C 26.332031 1 21.945312 -0.203125 17.9375 -2.609375 C 13.925781 -5.023438 10.769531 -8.269531 8.46875 -12.34375 C 6.175781 -16.425781 5.03125 -20.847656 5.03125 -25.609375 C 5.03125 -30.171875 6.117188 -34.421875 8.296875 -38.359375 C 10.484375 -42.304688 13.488281 -45.460938 17.3125 -47.828125 C 21.132812 -50.191406 25.3125 -51.375 29.84375 -51.375 C 34.03125 -51.375 37.9375 -50.328125 41.5625 -48.234375 C 45.1875 -46.140625 48.070312 -43.269531 50.21875 -39.625 C 52.363281 -35.988281 53.4375 -32.039062 53.4375 -27.78125 C 53.4375 -24.019531 52.144531 -22.140625 49.5625 -22.140625 L 12.9375 -22.140625 C 13.738281 -17.816406 15.816406 -14.132812 19.171875 -11.09375 C 22.523438 -8.0625 26.46875 -6.546875 31 -6.546875 C 33.644531 -6.546875 36.242188 -7.140625 38.796875 -8.328125 C 41.347656 -9.515625 43.445312 -11.117188 45.09375 -13.140625 C 45.394531 -13.535156 45.835938 -13.875 46.421875 -14.15625 C 47.003906 -14.445312 47.550781 -14.59375 48.0625 -14.59375 C 49.101562 -14.59375 49.988281 -14.222656 50.71875 -13.484375 C 51.457031 -12.742188 51.828125 -11.851562 51.828125 -10.8125 C 51.828125 -9.90625 51.523438 -9.085938 50.921875 -8.359375 C 48.503906 -5.398438 45.550781 -3.097656 42.0625 -1.453125 C 38.582031 0.179688 34.925781 1 31.09375 1 Z M 45.75 -29.59375 C 45.28125 -33.582031 43.535156 -36.953125 40.515625 -39.703125 C 37.492188 -42.453125 33.953125 -43.828125 29.890625 -43.828125 C 25.734375 -43.828125 22.101562 -42.453125 19 -39.703125 C 15.894531 -36.953125 13.90625 -33.582031 13.03125 -29.59375 Z M 45.75 -29.59375 "/></g></g></g><g fill="#6ada98" fill-opacity="1"><g transform="translate(514.487046, 127.679259)"><g><path d="M 29.890625 -51.828125 C 34.390625 -51.828125 38.488281 -50.847656 42.1875 -48.890625 C 45.894531 -46.929688 48.640625 -44.289062 50.421875 -40.96875 C 50.722656 -40.425781 50.875 -39.835938 50.875 -39.203125 C 50.875 -38.191406 50.515625 -37.332031 49.796875 -36.625 C 49.078125 -35.925781 48.210938 -35.578125 47.203125 -35.578125 C 46.597656 -35.578125 45.976562 -35.769531 45.34375 -36.15625 C 44.707031 -36.539062 44.253906 -37.003906 43.984375 -37.546875 C 42.773438 -39.785156 40.9375 -41.507812 38.46875 -42.71875 C 36.007812 -43.925781 33.132812 -44.53125 29.84375 -44.53125 C 28.164062 -44.53125 26.453125 -44.367188 24.703125 -44.046875 C 22.960938 -43.734375 21.273438 -43.257812 19.640625 -42.625 C 18.015625 -41.988281 16.679688 -41.082031 15.640625 -39.90625 C 14.609375 -38.726562 14.09375 -37.40625 14.09375 -35.9375 C 14.09375 -35.03125 14.328125 -34.210938 14.796875 -33.484375 C 15.265625 -32.765625 15.957031 -32.175781 16.875 -31.71875 C 17.800781 -31.269531 18.75 -30.878906 19.71875 -30.546875 C 20.695312 -30.210938 21.878906 -29.941406 23.265625 -29.734375 C 24.660156 -29.535156 25.851562 -29.382812 26.84375 -29.28125 C 27.832031 -29.1875 29.03125 -29.085938 30.4375 -28.984375 C 31.851562 -28.878906 32.847656 -28.796875 33.421875 -28.734375 C 35.523438 -28.492188 37.375 -28.234375 38.96875 -27.953125 C 40.5625 -27.671875 42.269531 -27.203125 44.09375 -26.546875 C 45.925781 -25.890625 47.421875 -25.09375 48.578125 -24.15625 C 49.742188 -23.21875 50.71875 -21.972656 51.5 -20.421875 C 52.289062 -18.878906 52.6875 -17.101562 52.6875 -15.09375 C 52.6875 -12.375 52.039062 -9.945312 50.75 -7.8125 C 49.457031 -5.6875 47.71875 -3.988281 45.53125 -2.71875 C 43.351562 -1.445312 40.957031 -0.492188 38.34375 0.140625 C 35.726562 0.785156 32.976562 1.109375 30.09375 1.109375 C 24.726562 1.109375 19.9375 0.078125 15.71875 -1.984375 C 11.507812 -4.046875 8.414062 -7.007812 6.4375 -10.875 C 6.164062 -11.34375 6.03125 -11.910156 6.03125 -12.578125 C 6.03125 -13.585938 6.382812 -14.441406 7.09375 -15.140625 C 7.800781 -15.847656 8.65625 -16.203125 9.65625 -16.203125 C 10.300781 -16.203125 10.941406 -16.007812 11.578125 -15.625 C 12.210938 -15.238281 12.664062 -14.757812 12.9375 -14.1875 C 15.6875 -8.851562 21.40625 -6.1875 30.09375 -6.1875 C 31.9375 -6.1875 33.710938 -6.34375 35.421875 -6.65625 C 37.140625 -6.976562 38.769531 -7.46875 40.3125 -8.125 C 41.851562 -8.78125 43.09375 -9.703125 44.03125 -10.890625 C 44.96875 -12.085938 45.4375 -13.488281 45.4375 -15.09375 C 45.4375 -16.195312 45.078125 -17.171875 44.359375 -18.015625 C 43.640625 -18.859375 42.765625 -19.492188 41.734375 -19.921875 C 40.710938 -20.359375 39.394531 -20.734375 37.78125 -21.046875 C 36.175781 -21.367188 34.753906 -21.585938 33.515625 -21.703125 C 32.273438 -21.828125 30.804688 -21.945312 29.109375 -22.0625 C 27.421875 -22.1875 26.207031 -22.296875 25.46875 -22.390625 C 23.488281 -22.628906 21.722656 -22.90625 20.171875 -23.21875 C 18.628906 -23.539062 16.984375 -24.035156 15.234375 -24.703125 C 13.492188 -25.378906 12.046875 -26.175781 10.890625 -27.09375 C 9.734375 -28.019531 8.769531 -29.238281 8 -30.75 C 7.226562 -32.257812 6.84375 -33.988281 6.84375 -35.9375 C 6.84375 -38.082031 7.300781 -40.0625 8.21875 -41.875 C 9.144531 -43.6875 10.378906 -45.191406 11.921875 -46.390625 C 13.460938 -47.597656 15.238281 -48.617188 17.25 -49.453125 C 19.269531 -50.296875 21.335938 -50.898438 23.453125 -51.265625 C 25.566406 -51.640625 27.710938 -51.828125 29.890625 -51.828125 Z M 29.890625 -51.828125 "/></g></g></g><g clip-path="url(#8859d21a71)"><g clip-path="url(#8ae05f4416)"><g clip-path="url(#52093cd8d3)"><path fill="#53ca97" d="M 582.878906 50.617188 C 582.054688 50.761719 579.734375 53.164062 575.542969 58.167969 C 572.445312 61.851562 570.945312 64.207031 570.265625 66.417969 C 569.550781 68.675781 570.585938 68.300781 573.304688 65.429688 C 576.953125 61.496094 583.800781 52.964844 584.074219 51.96875 C 584.347656 50.972656 583.878906 50.429688 582.878906 50.617188 Z M 582.878906 50.617188 " fill-opacity="1" fill-rule="evenodd"/></g></g></g><g clip-path="url(#83c64f1e5e)"><g clip-path="url(#12bf5f56fb)"><g clip-path="url(#013864857f)"><path fill="#53ca97" d="M 564.882812 49.066406 C 563.621094 49.226562 561.851562 55.789062 561.53125 61.441406 C 561.449219 62.832031 561.839844 63.707031 562.304688 63.105469 C 563.269531 61.859375 565.625 53.941406 565.855469 51.207031 C 565.957031 49.933594 565.515625 48.984375 564.882812 49.066406 Z M 564.882812 49.066406 " fill-opacity="1" fill-rule="evenodd"/></g></g></g><g clip-path="url(#f51b340664)"><g clip-path="url(#462e78ff3f)"><g clip-path="url(#28ffbf2426)"><path fill="#53ca97" d="M 588.5625 68.3125 C 587.640625 68.128906 585.144531 69.007812 581.621094 70.761719 C 577.667969 72.75 575.265625 74.660156 576.019531 75.246094 C 576.554688 75.65625 588.617188 70.910156 589.304688 70.023438 C 589.628906 69.597656 589.699219 68.726562 589.398438 68.566406 C 589.308594 68.496094 588.957031 68.402344 588.5625 68.3125 Z M 588.5625 68.3125 " fill-opacity="1" fill-rule="evenodd"/></g></g></g><g clip-path="url(#e5aa2fc4df)"><g clip-path="url(#1ee305f7ce)"><g clip-path="url(#3eabff3d61)"><path fill="#53ca97" d="M 547.046875 44.046875 C 545.9375 44.007812 545.894531 45.078125 546.839844 48.402344 C 547.34375 50.144531 548.09375 53.214844 548.554688 55.238281 C 550.457031 63.855469 552.460938 67.46875 552.253906 61.941406 C 552.078125 57.113281 550.578125 49.910156 549.097656 46.632812 C 548.125 44.492188 547.769531 44.074219 547.046875 44.046875 Z M 547.046875 44.046875 " fill-opacity="1" fill-rule="evenodd"/></g></g></g><g clip-path="url(#7600553103)"><g clip-path="url(#784a596c91)"><g clip-path="url(#b872bebb51)"><path fill="#53ca97" d="M 599.589844 85.445312 C 592.964844 83.625 586.042969 82.644531 580.59375 82.796875 C 577.851562 82.847656 577.332031 83.015625 578.109375 83.617188 C 578.734375 84.097656 597.332031 87.855469 599.238281 87.875 C 601.386719 87.902344 603.148438 86.953125 602.222656 86.269531 C 602.046875 86.171875 600.878906 85.800781 599.589844 85.445312 Z M 599.589844 85.445312 " fill-opacity="1" fill-rule="evenodd"/></g></g></g><path fill="#53ca97" d="M 384.445312 81.921875 C 384.285156 82.789062 384.386719 83.765625 384.398438 84.65625 C 384.410156 85.597656 384.445312 86.511719 384.527344 87.441406 C 384.609375 88.332031 386.128906 88.460938 386.3125 87.566406 C 386.53125 86.558594 386.636719 85.621094 386.613281 84.597656 C 386.578125 83.601562 386.542969 82.523438 386.164062 81.597656 C 386.011719 81.238281 385.546875 81.039062 385.1875 81.109375 C 384.757812 81.191406 384.527344 81.527344 384.445312 81.921875 Z M 384.445312 81.921875 " fill-opacity="1" fill-rule="nonzero"/><g clip-path="url(#499cbcf562)"><path fill="#53ca97" d="M 397.046875 81.621094 C 396.699219 82.316406 396.839844 83.347656 396.875 84.113281 C 396.910156 85.003906 397.011719 85.828125 397.246094 86.6875 C 397.558594 87.855469 399.042969 87.683594 399.273438 86.570312 C 399.472656 85.644531 399.484375 84.796875 399.378906 83.855469 C 399.285156 83.011719 399.203125 82.003906 398.660156 81.308594 C 398.171875 80.691406 397.339844 81.027344 397.046875 81.621094 Z M 397.046875 81.621094 " fill-opacity="1" fill-rule="nonzero"/></g><g clip-path="url(#d74cbc793b)"><path fill="#53ca97" d="M 375.703125 96.332031 C 375.671875 98.082031 376.550781 99.726562 377.523438 101.132812 C 378.488281 102.511719 379.714844 103.714844 381.097656 104.679688 C 383.726562 106.511719 386.949219 107.554688 390.148438 107.691406 C 393.394531 107.832031 396.722656 107.160156 399.574219 105.582031 C 402.414062 104.019531 404.816406 101.710938 406.566406 98.976562 C 407.527344 97.46875 408.304688 95.820312 408.851562 94.117188 C 409.140625 93.234375 409.371094 92.320312 409.523438 91.40625 C 409.660156 90.5 409.847656 89.46875 409.558594 88.585938 C 409.277344 87.753906 408.257812 87.636719 407.863281 88.460938 C 407.550781 89.121094 407.515625 89.851562 407.367188 90.570312 C 407.214844 91.277344 407.054688 91.984375 406.84375 92.679688 C 406.449219 94.011719 405.917969 95.3125 405.234375 96.515625 C 403.851562 98.964844 401.953125 101.15625 399.585938 102.707031 C 394.902344 105.769531 388.574219 106.1875 383.566406 103.613281 C 382.105469 102.859375 380.75 101.851562 379.636719 100.65625 C 378.371094 99.300781 377.652344 97.722656 376.78125 96.113281 C 376.527344 95.660156 375.714844 95.742188 375.703125 96.332031 Z M 375.703125 96.332031 " fill-opacity="1" fill-rule="nonzero"/></g><g fill="#9dc4d3" fill-opacity="1"><g transform="translate(109.099947, 167.983084)"><g><path d="M 11 -18.25 L 7.5625 -10.328125 L 14.484375 -10.328125 Z M 1.953125 0.375 C 1.679688 0.375 1.421875 0.253906 1.171875 0.015625 C 0.929688 -0.222656 0.8125 -0.472656 0.8125 -0.734375 C 0.8125 -0.992188 0.847656 -1.203125 0.921875 -1.359375 L 9.875 -21.796875 C 9.945312 -21.972656 10.085938 -22.140625 10.296875 -22.296875 C 10.515625 -22.453125 10.726562 -22.53125 10.9375 -22.53125 C 11.507812 -22.53125 11.90625 -22.285156 12.125 -21.796875 L 21.09375 -1.390625 C 21.15625 -1.242188 21.1875 -1.082031 21.1875 -0.90625 C 21.1875 -0.582031 21.082031 -0.289062 20.875 -0.03125 C 20.664062 0.21875 20.410156 0.34375 20.109375 0.34375 C 19.460938 0.34375 19.039062 0.09375 18.84375 -0.40625 L 15.5625 -7.890625 L 6.5 -7.890625 L 3.15625 -0.375 C 2.957031 0.125 2.554688 0.375 1.953125 0.375 Z M 1.953125 0.375 "/></g></g></g><g fill="#172b38" fill-opacity="1"><g transform="translate(132.105723, 167.983084)"><g/></g></g><g fill="#6ada98" fill-opacity="1"><g transform="translate(141.261321, 167.983084)"><g><path d="M 11.484375 -2.3125 C 13.066406 -2.320312 14.226562 -2.660156 14.96875 -3.328125 C 15.71875 -3.992188 16.09375 -5.113281 16.09375 -6.6875 C 16.09375 -9.269531 14.5625 -10.5625 11.5 -10.5625 L 11.25 -10.5625 L 4.421875 -10.46875 L 4.4375 -2.28125 Z M 8.84375 -20.0625 L 4.40625 -20.046875 L 4.421875 -12.90625 L 11.203125 -13 C 13.847656 -13.03125 15.171875 -14.097656 15.171875 -16.203125 C 15.171875 -17.097656 14.890625 -17.84375 14.328125 -18.4375 C 13.765625 -19.03125 13.019531 -19.445312 12.09375 -19.6875 C 11.175781 -19.9375 10.09375 -20.0625 8.84375 -20.0625 Z M 17.609375 -16.25 C 17.609375 -15.332031 17.457031 -14.546875 17.15625 -13.890625 C 16.851562 -13.242188 16.394531 -12.628906 15.78125 -12.046875 C 16.625 -11.515625 17.296875 -10.800781 17.796875 -9.90625 C 18.296875 -9.007812 18.546875 -7.960938 18.546875 -6.765625 C 18.546875 -4.535156 17.941406 -2.84375 16.734375 -1.6875 C 15.535156 -0.53125 13.800781 0.0351562 11.53125 0.015625 L 3.171875 0 C 2.835938 0 2.554688 -0.0859375 2.328125 -0.265625 C 2.097656 -0.453125 1.984375 -0.707031 1.984375 -1.03125 L 1.953125 -21.328125 C 1.953125 -21.640625 2.066406 -21.914062 2.296875 -22.15625 C 2.535156 -22.40625 2.8125 -22.535156 3.125 -22.546875 L 8.734375 -22.578125 C 10.472656 -22.578125 11.992188 -22.351562 13.296875 -21.90625 C 14.597656 -21.46875 15.640625 -20.765625 16.421875 -19.796875 C 17.210938 -18.828125 17.609375 -17.644531 17.609375 -16.25 Z M 17.609375 -16.25 "/></g></g></g><g fill="#6ada98" fill-opacity="1"><g transform="translate(162.431062, 167.983084)"><g><path d="M 14.546875 0.421875 C 14.210938 0.421875 13.9375 0.300781 13.71875 0.0625 C 13.507812 -0.175781 13.40625 -0.460938 13.40625 -0.796875 L 13.3125 -2.734375 C 11.625 -0.660156 9.832031 0.375 7.9375 0.375 C 6.894531 0.375 5.976562 0.160156 5.1875 -0.265625 C 4.40625 -0.691406 3.78125 -1.273438 3.3125 -2.015625 C 2.851562 -2.765625 2.507812 -3.601562 2.28125 -4.53125 C 2.0625 -5.457031 1.953125 -6.457031 1.953125 -7.53125 L 1.96875 -15.4375 C 1.96875 -15.769531 2.085938 -16.054688 2.328125 -16.296875 C 2.566406 -16.535156 2.851562 -16.65625 3.1875 -16.65625 C 3.53125 -16.65625 3.820312 -16.535156 4.0625 -16.296875 C 4.300781 -16.054688 4.421875 -15.765625 4.421875 -15.421875 L 4.40625 -7.53125 C 4.40625 -3.882812 5.582031 -2.0625 7.9375 -2.0625 C 9.6875 -2.0625 11.015625 -2.53125 11.921875 -3.46875 C 12.835938 -4.40625 13.296875 -5.742188 13.296875 -7.484375 L 13.296875 -15.46875 C 13.296875 -15.800781 13.414062 -16.085938 13.65625 -16.328125 C 13.894531 -16.566406 14.179688 -16.6875 14.515625 -16.6875 C 14.859375 -16.6875 15.148438 -16.566406 15.390625 -16.328125 C 15.628906 -16.085938 15.75 -15.796875 15.75 -15.453125 L 15.765625 -0.8125 C 15.765625 -0.46875 15.644531 -0.175781 15.40625 0.0625 C 15.175781 0.300781 14.890625 0.421875 14.546875 0.421875 Z M 14.546875 0.421875 "/></g></g></g><g fill="#6ada98" fill-opacity="1"><g transform="translate(181.14085, 167.983084)"><g><path d="M 9.21875 0.34375 C 7.789062 0.34375 6.488281 -0.046875 5.3125 -0.828125 C 4.132812 -1.609375 3.222656 -2.632812 2.578125 -3.90625 C 1.941406 -5.1875 1.625 -6.5625 1.625 -8.03125 C 1.625 -9.132812 1.816406 -10.207031 2.203125 -11.25 C 2.597656 -12.289062 3.128906 -13.207031 3.796875 -14 C 4.472656 -14.800781 5.296875 -15.441406 6.265625 -15.921875 C 7.234375 -16.410156 8.269531 -16.65625 9.375 -16.65625 C 11.1875 -16.65625 12.929688 -15.773438 14.609375 -14.015625 L 14.609375 -21.375 C 14.609375 -21.71875 14.722656 -22.007812 14.953125 -22.25 C 15.191406 -22.488281 15.476562 -22.609375 15.8125 -22.609375 C 16.15625 -22.609375 16.445312 -22.488281 16.6875 -22.25 C 16.925781 -22.007812 17.046875 -21.71875 17.046875 -21.375 L 17.046875 -0.859375 C 17.046875 -0.523438 16.925781 -0.238281 16.6875 0 C 16.445312 0.238281 16.160156 0.359375 15.828125 0.359375 C 15.492188 0.359375 15.21875 0.238281 15 0 C 14.789062 -0.238281 14.6875 -0.523438 14.6875 -0.859375 L 14.609375 -2.421875 C 12.773438 -0.578125 10.976562 0.34375 9.21875 0.34375 Z M 9.265625 -2.109375 C 10.328125 -2.109375 11.269531 -2.40625 12.09375 -3 C 12.925781 -3.601562 13.546875 -4.367188 13.953125 -5.296875 C 14.367188 -6.234375 14.578125 -7.222656 14.578125 -8.265625 C 14.578125 -9.296875 14.375 -10.257812 13.96875 -11.15625 C 13.5625 -12.050781 12.953125 -12.78125 12.140625 -13.34375 C 11.328125 -13.914062 10.394531 -14.203125 9.34375 -14.203125 C 8.332031 -14.203125 7.414062 -13.898438 6.59375 -13.296875 C 5.78125 -12.691406 5.160156 -11.914062 4.734375 -10.96875 C 4.316406 -10.03125 4.109375 -9.035156 4.109375 -7.984375 C 4.109375 -6.390625 4.585938 -5.007812 5.546875 -3.84375 C 6.515625 -2.6875 7.753906 -2.109375 9.265625 -2.109375 Z M 9.265625 -2.109375 "/></g></g></g><g fill="#6ada98" fill-opacity="1"><g transform="translate(201.137627, 167.983084)"><g><path d="M 9.21875 0.34375 C 7.789062 0.34375 6.488281 -0.046875 5.3125 -0.828125 C 4.132812 -1.609375 3.222656 -2.632812 2.578125 -3.90625 C 1.941406 -5.1875 1.625 -6.5625 1.625 -8.03125 C 1.625 -9.132812 1.816406 -10.207031 2.203125 -11.25 C 2.597656 -12.289062 3.128906 -13.207031 3.796875 -14 C 4.472656 -14.800781 5.296875 -15.441406 6.265625 -15.921875 C 7.234375 -16.410156 8.269531 -16.65625 9.375 -16.65625 C 11.1875 -16.65625 12.929688 -15.773438 14.609375 -14.015625 L 14.609375 -21.375 C 14.609375 -21.71875 14.722656 -22.007812 14.953125 -22.25 C 15.191406 -22.488281 15.476562 -22.609375 15.8125 -22.609375 C 16.15625 -22.609375 16.445312 -22.488281 16.6875 -22.25 C 16.925781 -22.007812 17.046875 -21.71875 17.046875 -21.375 L 17.046875 -0.859375 C 17.046875 -0.523438 16.925781 -0.238281 16.6875 0 C 16.445312 0.238281 16.160156 0.359375 15.828125 0.359375 C 15.492188 0.359375 15.21875 0.238281 15 0 C 14.789062 -0.238281 14.6875 -0.523438 14.6875 -0.859375 L 14.609375 -2.421875 C 12.773438 -0.578125 10.976562 0.34375 9.21875 0.34375 Z M 9.265625 -2.109375 C 10.328125 -2.109375 11.269531 -2.40625 12.09375 -3 C 12.925781 -3.601562 13.546875 -4.367188 13.953125 -5.296875 C 14.367188 -6.234375 14.578125 -7.222656 14.578125 -8.265625 C 14.578125 -9.296875 14.375 -10.257812 13.96875 -11.15625 C 13.5625 -12.050781 12.953125 -12.78125 12.140625 -13.34375 C 11.328125 -13.914062 10.394531 -14.203125 9.34375 -14.203125 C 8.332031 -14.203125 7.414062 -13.898438 6.59375 -13.296875 C 5.78125 -12.691406 5.160156 -11.914062 4.734375 -10.96875 C 4.316406 -10.03125 4.109375 -9.035156 4.109375 -7.984375 C 4.109375 -6.390625 4.585938 -5.007812 5.546875 -3.84375 C 6.515625 -2.6875 7.753906 -2.109375 9.265625 -2.109375 Z M 9.265625 -2.109375 "/></g></g></g><g fill="#6ada98" fill-opacity="1"><g transform="translate(221.13441, 167.983084)"><g><path d="M 2.03125 -16.71875 C 2.257812 -16.71875 2.476562 -16.644531 2.6875 -16.5 C 2.90625 -16.363281 3.054688 -16.195312 3.140625 -16 L 9.09375 -3.140625 L 14.171875 -15.921875 C 14.265625 -16.140625 14.414062 -16.320312 14.625 -16.46875 C 14.84375 -16.625 15.070312 -16.703125 15.3125 -16.703125 C 15.738281 -16.703125 16.070312 -16.523438 16.3125 -16.171875 C 16.5625 -15.816406 16.601562 -15.429688 16.4375 -15.015625 L 9.25 3.015625 C 8.988281 3.671875 8.6875 4.28125 8.34375 4.84375 C 8.007812 5.414062 7.59375 5.972656 7.09375 6.515625 C 6.601562 7.066406 6.019531 7.503906 5.34375 7.828125 C 4.664062 8.148438 3.9375 8.3125 3.15625 8.3125 C 2.820312 8.3125 2.535156 8.191406 2.296875 7.953125 C 2.054688 7.710938 1.9375 7.425781 1.9375 7.09375 C 1.9375 6.769531 2.050781 6.488281 2.28125 6.25 C 2.507812 6.007812 2.78125 5.878906 3.09375 5.859375 C 3.457031 5.835938 3.796875 5.765625 4.109375 5.640625 C 4.429688 5.515625 4.710938 5.367188 4.953125 5.203125 C 5.191406 5.046875 5.425781 4.820312 5.65625 4.53125 C 5.894531 4.25 6.085938 3.988281 6.234375 3.75 C 6.378906 3.519531 6.535156 3.210938 6.703125 2.828125 C 6.878906 2.441406 7.015625 2.125 7.109375 1.875 C 7.203125 1.632812 7.328125 1.300781 7.484375 0.875 C 7.640625 0.457031 7.757812 0.148438 7.84375 -0.046875 L 0.921875 -14.953125 C 0.847656 -15.128906 0.8125 -15.3125 0.8125 -15.5 C 0.8125 -15.832031 0.929688 -16.117188 1.171875 -16.359375 C 1.410156 -16.597656 1.695312 -16.71875 2.03125 -16.71875 Z M 2.03125 -16.71875 "/></g></g></g><g fill="#172b38" fill-opacity="1"><g transform="translate(239.497154, 167.983084)"><g/></g></g><g fill="#9dc4d3" fill-opacity="1"><g transform="translate(248.652752, 167.983084)"><g><path d="M 10.171875 -19.828125 C 9.984375 -19.828125 9.6875 -19.898438 9.28125 -20.046875 C 8.882812 -20.191406 8.519531 -20.257812 8.1875 -20.25 C 7.488281 -20.238281 6.976562 -20 6.65625 -19.53125 C 6.332031 -19.070312 6.175781 -18.359375 6.1875 -17.390625 L 6.203125 -16.265625 L 9.578125 -16.265625 C 9.878906 -16.265625 10.144531 -16.140625 10.375 -15.890625 C 10.601562 -15.648438 10.71875 -15.375 10.71875 -15.0625 C 10.71875 -14.820312 10.609375 -14.582031 10.390625 -14.34375 C 10.179688 -14.101562 9.96875 -13.984375 9.75 -13.984375 L 6.203125 -13.984375 L 6.234375 -0.84375 C 6.234375 -0.507812 6.113281 -0.222656 5.875 0.015625 C 5.644531 0.253906 5.359375 0.375 5.015625 0.375 C 4.679688 0.375 4.394531 0.253906 4.15625 0.015625 C 3.914062 -0.222656 3.796875 -0.515625 3.796875 -0.859375 L 3.765625 -13.984375 L 1.5 -13.984375 C 1.164062 -13.984375 0.890625 -14.09375 0.671875 -14.3125 C 0.460938 -14.539062 0.359375 -14.84375 0.359375 -15.21875 C 0.359375 -15.4375 0.457031 -15.65625 0.65625 -15.875 C 0.863281 -16.101562 1.066406 -16.21875 1.265625 -16.21875 L 3.765625 -16.265625 L 3.765625 -17.28125 C 3.765625 -19.050781 4.117188 -20.382812 4.828125 -21.28125 C 5.546875 -22.175781 6.703125 -22.625 8.296875 -22.625 C 8.648438 -22.625 9.050781 -22.582031 9.5 -22.5 C 9.945312 -22.425781 10.382812 -22.269531 10.8125 -22.03125 C 11.238281 -21.789062 11.453125 -21.5 11.453125 -21.15625 C 11.453125 -20.769531 11.335938 -20.453125 11.109375 -20.203125 C 10.878906 -19.953125 10.566406 -19.828125 10.171875 -19.828125 Z M 10.171875 -19.828125 "/></g></g></g><g fill="#9dc4d3" fill-opacity="1"><g transform="translate(261.106749, 167.983084)"><g><path d="M 9.765625 -16.71875 C 11.253906 -16.71875 12.628906 -16.320312 13.890625 -15.53125 C 15.148438 -14.75 16.132812 -13.703125 16.84375 -12.390625 C 17.5625 -11.085938 17.921875 -9.6875 17.921875 -8.1875 C 17.921875 -6.6875 17.566406 -5.28125 16.859375 -3.96875 C 16.160156 -2.664062 15.1875 -1.617188 13.9375 -0.828125 C 12.6875 -0.0351562 11.316406 0.363281 9.828125 0.375 C 8.691406 0.375 7.613281 0.140625 6.59375 -0.328125 C 5.570312 -0.796875 4.703125 -1.414062 3.984375 -2.1875 C 3.265625 -2.96875 2.691406 -3.878906 2.265625 -4.921875 C 1.835938 -5.960938 1.625 -7.050781 1.625 -8.1875 C 1.625 -9.6875 1.984375 -11.085938 2.703125 -12.390625 C 3.421875 -13.703125 4.40625 -14.75 5.65625 -15.53125 C 6.914062 -16.320312 8.285156 -16.71875 9.765625 -16.71875 Z M 9.765625 -14.28125 C 8.191406 -14.28125 6.847656 -13.675781 5.734375 -12.46875 C 4.628906 -11.257812 4.078125 -9.84375 4.078125 -8.21875 C 4.078125 -6.550781 4.628906 -5.109375 5.734375 -3.890625 C 6.847656 -2.671875 8.207031 -2.0625 9.8125 -2.0625 C 10.851562 -2.082031 11.8125 -2.375 12.6875 -2.9375 C 13.5625 -3.5 14.242188 -4.242188 14.734375 -5.171875 C 15.234375 -6.109375 15.484375 -7.113281 15.484375 -8.1875 C 15.484375 -9.820312 14.925781 -11.242188 13.8125 -12.453125 C 12.695312 -13.671875 11.347656 -14.28125 9.765625 -14.28125 Z M 9.765625 -14.28125 "/></g></g></g><g fill="#9dc4d3" fill-opacity="1"><g transform="translate(281.657427, 167.983084)"><g><path d="M 11.546875 -15.140625 C 11.546875 -14.847656 11.445312 -14.578125 11.25 -14.328125 C 11.0625 -14.078125 10.851562 -13.953125 10.625 -13.953125 C 10.40625 -13.953125 10.082031 -14.03125 9.65625 -14.1875 C 9.238281 -14.34375 8.882812 -14.421875 8.59375 -14.421875 C 7.820312 -14.421875 7.15625 -14.289062 6.59375 -14.03125 C 6.03125 -13.769531 5.59375 -13.410156 5.28125 -12.953125 C 4.976562 -12.492188 4.753906 -12 4.609375 -11.46875 C 4.472656 -10.9375 4.40625 -10.359375 4.40625 -9.734375 L 4.40625 -0.84375 C 4.40625 -0.488281 4.296875 -0.195312 4.078125 0.03125 C 3.867188 0.269531 3.566406 0.390625 3.171875 0.390625 C 2.785156 0.390625 2.484375 0.269531 2.265625 0.03125 C 2.054688 -0.195312 1.953125 -0.488281 1.953125 -0.84375 L 1.953125 -15.296875 C 1.953125 -15.679688 2.078125 -16.003906 2.328125 -16.265625 C 2.585938 -16.523438 2.878906 -16.65625 3.203125 -16.65625 C 3.523438 -16.65625 3.785156 -16.53125 3.984375 -16.28125 C 4.179688 -16.03125 4.28125 -15.703125 4.28125 -15.296875 L 4.4375 -13.515625 C 4.664062 -14.296875 5.1875 -15.023438 6 -15.703125 C 6.820312 -16.378906 7.65625 -16.71875 8.5 -16.71875 C 10.53125 -16.71875 11.546875 -16.191406 11.546875 -15.140625 Z M 11.546875 -15.140625 "/></g></g></g><g fill="#9dc4d3" fill-opacity="1"><g transform="translate(294.372082, 167.983084)"><g/></g></g><g fill="#9dc4d3" fill-opacity="1"><g transform="translate(303.518976, 167.983084)"><g><path d="M 2.03125 -16.71875 C 2.257812 -16.71875 2.476562 -16.644531 2.6875 -16.5 C 2.90625 -16.363281 3.054688 -16.195312 3.140625 -16 L 9.09375 -3.140625 L 14.171875 -15.921875 C 14.265625 -16.140625 14.414062 -16.320312 14.625 -16.46875 C 14.84375 -16.625 15.070312 -16.703125 15.3125 -16.703125 C 15.738281 -16.703125 16.070312 -16.523438 16.3125 -16.171875 C 16.5625 -15.816406 16.601562 -15.429688 16.4375 -15.015625 L 9.25 3.015625 C 8.988281 3.671875 8.6875 4.28125 8.34375 4.84375 C 8.007812 5.414062 7.59375 5.972656 7.09375 6.515625 C 6.601562 7.066406 6.019531 7.503906 5.34375 7.828125 C 4.664062 8.148438 3.9375 8.3125 3.15625 8.3125 C 2.820312 8.3125 2.535156 8.191406 2.296875 7.953125 C 2.054688 7.710938 1.9375 7.425781 1.9375 7.09375 C 1.9375 6.769531 2.050781 6.488281 2.28125 6.25 C 2.507812 6.007812 2.78125 5.878906 3.09375 5.859375 C 3.457031 5.835938 3.796875 5.765625 4.109375 5.640625 C 4.429688 5.515625 4.710938 5.367188 4.953125 5.203125 C 5.191406 5.046875 5.425781 4.820312 5.65625 4.53125 C 5.894531 4.25 6.085938 3.988281 6.234375 3.75 C 6.378906 3.519531 6.535156 3.210938 6.703125 2.828125 C 6.878906 2.441406 7.015625 2.125 7.109375 1.875 C 7.203125 1.632812 7.328125 1.300781 7.484375 0.875 C 7.640625 0.457031 7.757812 0.148438 7.84375 -0.046875 L 0.921875 -14.953125 C 0.847656 -15.128906 0.8125 -15.3125 0.8125 -15.5 C 0.8125 -15.832031 0.929688 -16.117188 1.171875 -16.359375 C 1.410156 -16.597656 1.695312 -16.71875 2.03125 -16.71875 Z M 2.03125 -16.71875 "/></g></g></g><g fill="#9dc4d3" fill-opacity="1"><g transform="translate(321.870362, 167.983084)"><g><path d="M 9.765625 -16.71875 C 11.253906 -16.71875 12.628906 -16.320312 13.890625 -15.53125 C 15.148438 -14.75 16.132812 -13.703125 16.84375 -12.390625 C 17.5625 -11.085938 17.921875 -9.6875 17.921875 -8.1875 C 17.921875 -6.6875 17.566406 -5.28125 16.859375 -3.96875 C 16.160156 -2.664062 15.1875 -1.617188 13.9375 -0.828125 C 12.6875 -0.0351562 11.316406 0.363281 9.828125 0.375 C 8.691406 0.375 7.613281 0.140625 6.59375 -0.328125 C 5.570312 -0.796875 4.703125 -1.414062 3.984375 -2.1875 C 3.265625 -2.96875 2.691406 -3.878906 2.265625 -4.921875 C 1.835938 -5.960938 1.625 -7.050781 1.625 -8.1875 C 1.625 -9.6875 1.984375 -11.085938 2.703125 -12.390625 C 3.421875 -13.703125 4.40625 -14.75 5.65625 -15.53125 C 6.914062 -16.320312 8.285156 -16.71875 9.765625 -16.71875 Z M 9.765625 -14.28125 C 8.191406 -14.28125 6.847656 -13.675781 5.734375 -12.46875 C 4.628906 -11.257812 4.078125 -9.84375 4.078125 -8.21875 C 4.078125 -6.550781 4.628906 -5.109375 5.734375 -3.890625 C 6.847656 -2.671875 8.207031 -2.0625 9.8125 -2.0625 C 10.851562 -2.082031 11.8125 -2.375 12.6875 -2.9375 C 13.5625 -3.5 14.242188 -4.242188 14.734375 -5.171875 C 15.234375 -6.109375 15.484375 -7.113281 15.484375 -8.1875 C 15.484375 -9.820312 14.925781 -11.242188 13.8125 -12.453125 C 12.695312 -13.671875 11.347656 -14.28125 9.765625 -14.28125 Z M 9.765625 -14.28125 "/></g></g></g><g fill="#9dc4d3" fill-opacity="1"><g transform="translate(342.421043, 167.983084)"><g><path d="M 14.546875 0.421875 C 14.210938 0.421875 13.9375 0.300781 13.71875 0.0625 C 13.507812 -0.175781 13.40625 -0.460938 13.40625 -0.796875 L 13.3125 -2.734375 C 11.625 -0.660156 9.832031 0.375 7.9375 0.375 C 6.894531 0.375 5.976562 0.160156 5.1875 -0.265625 C 4.40625 -0.691406 3.78125 -1.273438 3.3125 -2.015625 C 2.851562 -2.765625 2.507812 -3.601562 2.28125 -4.53125 C 2.0625 -5.457031 1.953125 -6.457031 1.953125 -7.53125 L 1.96875 -15.4375 C 1.96875 -15.769531 2.085938 -16.054688 2.328125 -16.296875 C 2.566406 -16.535156 2.851562 -16.65625 3.1875 -16.65625 C 3.53125 -16.65625 3.820312 -16.535156 4.0625 -16.296875 C 4.300781 -16.054688 4.421875 -15.765625 4.421875 -15.421875 L 4.40625 -7.53125 C 4.40625 -3.882812 5.582031 -2.0625 7.9375 -2.0625 C 9.6875 -2.0625 11.015625 -2.53125 11.921875 -3.46875 C 12.835938 -4.40625 13.296875 -5.742188 13.296875 -7.484375 L 13.296875 -15.46875 C 13.296875 -15.800781 13.414062 -16.085938 13.65625 -16.328125 C 13.894531 -16.566406 14.179688 -16.6875 14.515625 -16.6875 C 14.859375 -16.6875 15.148438 -16.566406 15.390625 -16.328125 C 15.628906 -16.085938 15.75 -15.796875 15.75 -15.453125 L 15.765625 -0.8125 C 15.765625 -0.46875 15.644531 -0.175781 15.40625 0.0625 C 15.175781 0.300781 14.890625 0.421875 14.546875 0.421875 Z M 14.546875 0.421875 "/></g></g></g><g fill="#9dc4d3" fill-opacity="1"><g transform="translate(361.130833, 167.983084)"><g><path d="M 11.546875 -15.140625 C 11.546875 -14.847656 11.445312 -14.578125 11.25 -14.328125 C 11.0625 -14.078125 10.851562 -13.953125 10.625 -13.953125 C 10.40625 -13.953125 10.082031 -14.03125 9.65625 -14.1875 C 9.238281 -14.34375 8.882812 -14.421875 8.59375 -14.421875 C 7.820312 -14.421875 7.15625 -14.289062 6.59375 -14.03125 C 6.03125 -13.769531 5.59375 -13.410156 5.28125 -12.953125 C 4.976562 -12.492188 4.753906 -12 4.609375 -11.46875 C 4.472656 -10.9375 4.40625 -10.359375 4.40625 -9.734375 L 4.40625 -0.84375 C 4.40625 -0.488281 4.296875 -0.195312 4.078125 0.03125 C 3.867188 0.269531 3.566406 0.390625 3.171875 0.390625 C 2.785156 0.390625 2.484375 0.269531 2.265625 0.03125 C 2.054688 -0.195312 1.953125 -0.488281 1.953125 -0.84375 L 1.953125 -15.296875 C 1.953125 -15.679688 2.078125 -16.003906 2.328125 -16.265625 C 2.585938 -16.523438 2.878906 -16.65625 3.203125 -16.65625 C 3.523438 -16.65625 3.785156 -16.53125 3.984375 -16.28125 C 4.179688 -16.03125 4.28125 -15.703125 4.28125 -15.296875 L 4.4375 -13.515625 C 4.664062 -14.296875 5.1875 -15.023438 6 -15.703125 C 6.820312 -16.378906 7.65625 -16.71875 8.5 -16.71875 C 10.53125 -16.71875 11.546875 -16.191406 11.546875 -15.140625 Z M 11.546875 -15.140625 "/></g></g></g><g fill="#172b38" fill-opacity="1"><g transform="translate(373.853226, 167.983084)"><g/></g></g><g fill="#3f7776" fill-opacity="1"><g transform="translate(383.008824, 167.983084)"><g><path d="M 10.921875 -22.5 C 12.679688 -22.5 14.257812 -22.078125 15.65625 -21.234375 C 17.0625 -20.398438 18.078125 -19.28125 18.703125 -17.875 C 18.785156 -17.726562 18.828125 -17.566406 18.828125 -17.390625 C 18.828125 -17.078125 18.710938 -16.804688 18.484375 -16.578125 C 18.253906 -16.347656 17.984375 -16.234375 17.671875 -16.234375 C 17.453125 -16.234375 17.234375 -16.300781 17.015625 -16.4375 C 16.804688 -16.570312 16.664062 -16.738281 16.59375 -16.9375 C 16.144531 -17.9375 15.410156 -18.722656 14.390625 -19.296875 C 13.378906 -19.878906 12.222656 -20.171875 10.921875 -20.171875 C 9.929688 -20.171875 8.960938 -20.023438 8.015625 -19.734375 C 7.078125 -19.453125 6.265625 -18.988281 5.578125 -18.34375 C 4.898438 -17.707031 4.5625 -16.953125 4.5625 -16.078125 C 4.5625 -15.660156 4.648438 -15.273438 4.828125 -14.921875 C 5.003906 -14.578125 5.21875 -14.28125 5.46875 -14.03125 C 5.71875 -13.789062 6.066406 -13.5625 6.515625 -13.34375 C 6.972656 -13.132812 7.378906 -12.96875 7.734375 -12.84375 C 8.085938 -12.726562 8.550781 -12.609375 9.125 -12.484375 C 9.707031 -12.367188 10.160156 -12.285156 10.484375 -12.234375 C 10.816406 -12.191406 11.265625 -12.132812 11.828125 -12.0625 C 12.046875 -12.03125 12.203125 -12.007812 12.296875 -12 C 17.171875 -11.332031 19.609375 -9.382812 19.609375 -6.15625 C 19.609375 -5.300781 19.429688 -4.507812 19.078125 -3.78125 C 18.722656 -3.050781 18.25 -2.4375 17.65625 -1.9375 C 17.070312 -1.4375 16.398438 -1.003906 15.640625 -0.640625 C 14.878906 -0.285156 14.097656 -0.03125 13.296875 0.125 C 12.503906 0.289062 11.710938 0.375 10.921875 0.375 C 8.898438 0.375 7.085938 -0.0820312 5.484375 -1 C 3.878906 -1.914062 2.734375 -3.15625 2.046875 -4.71875 C 1.984375 -4.894531 1.953125 -5.054688 1.953125 -5.203125 C 1.953125 -5.515625 2.066406 -5.785156 2.296875 -6.015625 C 2.523438 -6.242188 2.796875 -6.359375 3.109375 -6.359375 C 3.316406 -6.359375 3.523438 -6.285156 3.734375 -6.140625 C 3.953125 -6.003906 4.101562 -5.835938 4.1875 -5.640625 C 4.695312 -4.472656 5.550781 -3.554688 6.75 -2.890625 C 7.945312 -2.234375 9.335938 -1.90625 10.921875 -1.90625 C 11.648438 -1.90625 12.375 -1.988281 13.09375 -2.15625 C 13.8125 -2.332031 14.488281 -2.582031 15.125 -2.90625 C 15.769531 -3.238281 16.296875 -3.6875 16.703125 -4.25 C 17.109375 -4.8125 17.3125 -5.445312 17.3125 -6.15625 C 17.3125 -6.65625 17.195312 -7.097656 16.96875 -7.484375 C 16.738281 -7.878906 16.457031 -8.195312 16.125 -8.4375 C 15.800781 -8.675781 15.378906 -8.882812 14.859375 -9.0625 C 14.347656 -9.25 13.882812 -9.378906 13.46875 -9.453125 C 13.050781 -9.535156 12.5625 -9.617188 12 -9.703125 C 11.375 -9.785156 10.878906 -9.851562 10.515625 -9.90625 C 10.148438 -9.957031 9.660156 -10.039062 9.046875 -10.15625 C 8.429688 -10.28125 7.929688 -10.398438 7.546875 -10.515625 C 7.160156 -10.628906 6.703125 -10.78125 6.171875 -10.96875 C 5.648438 -11.164062 5.222656 -11.367188 4.890625 -11.578125 C 4.554688 -11.785156 4.203125 -12.046875 3.828125 -12.359375 C 3.460938 -12.671875 3.171875 -13.003906 2.953125 -13.359375 C 2.742188 -13.710938 2.570312 -14.117188 2.4375 -14.578125 C 2.300781 -15.046875 2.234375 -15.550781 2.234375 -16.09375 C 2.234375 -17.09375 2.492188 -18.007812 3.015625 -18.84375 C 3.546875 -19.675781 4.234375 -20.351562 5.078125 -20.875 C 5.929688 -21.394531 6.863281 -21.796875 7.875 -22.078125 C 8.882812 -22.359375 9.898438 -22.5 10.921875 -22.5 Z M 10.921875 -22.5 "/></g></g></g><g fill="#3f7776" fill-opacity="1"><g transform="translate(405.563316, 167.983084)"><g><path d="M 4.484375 -20.109375 C 4.484375 -20.441406 4.601562 -20.726562 4.84375 -20.96875 C 5.082031 -21.207031 5.367188 -21.328125 5.703125 -21.328125 C 6.035156 -21.328125 6.320312 -21.207031 6.5625 -20.96875 C 6.800781 -20.726562 6.921875 -20.441406 6.921875 -20.109375 L 6.90625 -16.453125 L 10.09375 -16.4375 C 10.40625 -16.4375 10.671875 -16.328125 10.890625 -16.109375 C 11.117188 -15.890625 11.234375 -15.617188 11.234375 -15.296875 C 11.234375 -14.984375 11.117188 -14.710938 10.890625 -14.484375 C 10.671875 -14.265625 10.40625 -14.15625 10.09375 -14.15625 L 6.90625 -14.171875 L 6.890625 -4.015625 C 6.890625 -3.367188 6.984375 -2.882812 7.171875 -2.5625 C 7.367188 -2.25 7.71875 -2.09375 8.21875 -2.09375 C 8.539062 -2.09375 8.929688 -2.179688 9.390625 -2.359375 C 9.847656 -2.535156 10.207031 -2.625 10.46875 -2.625 C 10.800781 -2.625 11.085938 -2.503906 11.328125 -2.265625 C 11.566406 -2.023438 11.6875 -1.738281 11.6875 -1.40625 C 11.6875 -0.976562 11.484375 -0.625 11.078125 -0.34375 C 10.671875 -0.0625 10.226562 0.125 9.75 0.21875 C 9.269531 0.320312 8.789062 0.375 8.3125 0.375 C 7.0625 0.375 6.101562 -0.0195312 5.4375 -0.8125 C 4.78125 -1.613281 4.453125 -2.691406 4.453125 -4.046875 L 4.46875 -14.15625 L 1.953125 -14.15625 C 1.640625 -14.15625 1.367188 -14.265625 1.140625 -14.484375 C 0.921875 -14.710938 0.8125 -14.984375 0.8125 -15.296875 C 0.8125 -15.617188 0.921875 -15.890625 1.140625 -16.109375 C 1.367188 -16.328125 1.640625 -16.4375 1.953125 -16.4375 L 4.46875 -16.4375 Z M 4.484375 -20.109375 "/></g></g></g><g fill="#3f7776" fill-opacity="1"><g transform="translate(419.059945, 167.983084)"><g><path d="M 14.546875 0.421875 C 14.210938 0.421875 13.9375 0.300781 13.71875 0.0625 C 13.507812 -0.175781 13.40625 -0.460938 13.40625 -0.796875 L 13.3125 -2.734375 C 11.625 -0.660156 9.832031 0.375 7.9375 0.375 C 6.894531 0.375 5.976562 0.160156 5.1875 -0.265625 C 4.40625 -0.691406 3.78125 -1.273438 3.3125 -2.015625 C 2.851562 -2.765625 2.507812 -3.601562 2.28125 -4.53125 C 2.0625 -5.457031 1.953125 -6.457031 1.953125 -7.53125 L 1.96875 -15.4375 C 1.96875 -15.769531 2.085938 -16.054688 2.328125 -16.296875 C 2.566406 -16.535156 2.851562 -16.65625 3.1875 -16.65625 C 3.53125 -16.65625 3.820312 -16.535156 4.0625 -16.296875 C 4.300781 -16.054688 4.421875 -15.765625 4.421875 -15.421875 L 4.40625 -7.53125 C 4.40625 -3.882812 5.582031 -2.0625 7.9375 -2.0625 C 9.6875 -2.0625 11.015625 -2.53125 11.921875 -3.46875 C 12.835938 -4.40625 13.296875 -5.742188 13.296875 -7.484375 L 13.296875 -15.46875 C 13.296875 -15.800781 13.414062 -16.085938 13.65625 -16.328125 C 13.894531 -16.566406 14.179688 -16.6875 14.515625 -16.6875 C 14.859375 -16.6875 15.148438 -16.566406 15.390625 -16.328125 C 15.628906 -16.085938 15.75 -15.796875 15.75 -15.453125 L 15.765625 -0.8125 C 15.765625 -0.46875 15.644531 -0.175781 15.40625 0.0625 C 15.175781 0.300781 14.890625 0.421875 14.546875 0.421875 Z M 14.546875 0.421875 "/></g></g></g><g fill="#3f7776" fill-opacity="1"><g transform="translate(437.769729, 167.983084)"><g><path d="M 9.21875 0.34375 C 7.789062 0.34375 6.488281 -0.046875 5.3125 -0.828125 C 4.132812 -1.609375 3.222656 -2.632812 2.578125 -3.90625 C 1.941406 -5.1875 1.625 -6.5625 1.625 -8.03125 C 1.625 -9.132812 1.816406 -10.207031 2.203125 -11.25 C 2.597656 -12.289062 3.128906 -13.207031 3.796875 -14 C 4.472656 -14.800781 5.296875 -15.441406 6.265625 -15.921875 C 7.234375 -16.410156 8.269531 -16.65625 9.375 -16.65625 C 11.1875 -16.65625 12.929688 -15.773438 14.609375 -14.015625 L 14.609375 -21.375 C 14.609375 -21.71875 14.722656 -22.007812 14.953125 -22.25 C 15.191406 -22.488281 15.476562 -22.609375 15.8125 -22.609375 C 16.15625 -22.609375 16.445312 -22.488281 16.6875 -22.25 C 16.925781 -22.007812 17.046875 -21.71875 17.046875 -21.375 L 17.046875 -0.859375 C 17.046875 -0.523438 16.925781 -0.238281 16.6875 0 C 16.445312 0.238281 16.160156 0.359375 15.828125 0.359375 C 15.492188 0.359375 15.21875 0.238281 15 0 C 14.789062 -0.238281 14.6875 -0.523438 14.6875 -0.859375 L 14.609375 -2.421875 C 12.773438 -0.578125 10.976562 0.34375 9.21875 0.34375 Z M 9.265625 -2.109375 C 10.328125 -2.109375 11.269531 -2.40625 12.09375 -3 C 12.925781 -3.601562 13.546875 -4.367188 13.953125 -5.296875 C 14.367188 -6.234375 14.578125 -7.222656 14.578125 -8.265625 C 14.578125 -9.296875 14.375 -10.257812 13.96875 -11.15625 C 13.5625 -12.050781 12.953125 -12.78125 12.140625 -13.34375 C 11.328125 -13.914062 10.394531 -14.203125 9.34375 -14.203125 C 8.332031 -14.203125 7.414062 -13.898438 6.59375 -13.296875 C 5.78125 -12.691406 5.160156 -11.914062 4.734375 -10.96875 C 4.316406 -10.03125 4.109375 -9.035156 4.109375 -7.984375 C 4.109375 -6.390625 4.585938 -5.007812 5.546875 -3.84375 C 6.515625 -2.6875 7.753906 -2.109375 9.265625 -2.109375 Z M 9.265625 -2.109375 "/></g></g></g><g fill="#3f7776" fill-opacity="1"><g transform="translate(457.766512, 167.983084)"><g><path d="M 2.03125 -16.71875 C 2.257812 -16.71875 2.476562 -16.644531 2.6875 -16.5 C 2.90625 -16.363281 3.054688 -16.195312 3.140625 -16 L 9.09375 -3.140625 L 14.171875 -15.921875 C 14.265625 -16.140625 14.414062 -16.320312 14.625 -16.46875 C 14.84375 -16.625 15.070312 -16.703125 15.3125 -16.703125 C 15.738281 -16.703125 16.070312 -16.523438 16.3125 -16.171875 C 16.5625 -15.816406 16.601562 -15.429688 16.4375 -15.015625 L 9.25 3.015625 C 8.988281 3.671875 8.6875 4.28125 8.34375 4.84375 C 8.007812 5.414062 7.59375 5.972656 7.09375 6.515625 C 6.601562 7.066406 6.019531 7.503906 5.34375 7.828125 C 4.664062 8.148438 3.9375 8.3125 3.15625 8.3125 C 2.820312 8.3125 2.535156 8.191406 2.296875 7.953125 C 2.054688 7.710938 1.9375 7.425781 1.9375 7.09375 C 1.9375 6.769531 2.050781 6.488281 2.28125 6.25 C 2.507812 6.007812 2.78125 5.878906 3.09375 5.859375 C 3.457031 5.835938 3.796875 5.765625 4.109375 5.640625 C 4.429688 5.515625 4.710938 5.367188 4.953125 5.203125 C 5.191406 5.046875 5.425781 4.820312 5.65625 4.53125 C 5.894531 4.25 6.085938 3.988281 6.234375 3.75 C 6.378906 3.519531 6.535156 3.210938 6.703125 2.828125 C 6.878906 2.441406 7.015625 2.125 7.109375 1.875 C 7.203125 1.632812 7.328125 1.300781 7.484375 0.875 C 7.640625 0.457031 7.757812 0.148438 7.84375 -0.046875 L 0.921875 -14.953125 C 0.847656 -15.128906 0.8125 -15.3125 0.8125 -15.5 C 0.8125 -15.832031 0.929688 -16.117188 1.171875 -16.359375 C 1.410156 -16.597656 1.695312 -16.71875 2.03125 -16.71875 Z M 2.03125 -16.71875 "/></g></g></g><path fill="#3f7776" d="M 31.925781 67.644531 C 32.617188 72.0625 34.222656 75.558594 36.730469 78.082031 C 40.21875 81.589844 44.960938 82.796875 48.578125 83.164062 C 47.976562 79.027344 46.453125 75.683594 44.027344 73.195312 C 40.527344 69.605469 35.601562 68.191406 31.925781 67.644531 Z M 31.925781 67.644531 " fill-opacity="1" fill-rule="nonzero"/><path fill="#3f7776" d="M 54.863281 33.523438 C 52.488281 36.769531 49.753906 41.726562 49.761719 47.367188 C 49.761719 51.886719 51.566406 56.320312 55.128906 60.589844 C 57.472656 57.667969 60.230469 53.128906 60.417969 47.753906 C 60.582031 43.027344 58.714844 38.253906 54.863281 33.523438 Z M 54.863281 33.523438 " fill-opacity="1" fill-rule="nonzero"/><path fill="#3f7776" d="M 100.558594 81.535156 C 107.484375 67.496094 109.167969 50.488281 104.347656 35.460938 C 97.460938 13.996094 76.847656 0.945312 56.699219 0.28125 C 56.128906 0.265625 55.558594 0.253906 54.984375 0.253906 C 42.753906 0.253906 29.804688 4.519531 20.410156 13.167969 C 5.808594 26.609375 0.867188 46.570312 3.984375 66.011719 C 6.601562 82.335938 19.921875 93.492188 25.050781 108.691406 C 27.515625 116 27.382812 124.363281 27.246094 132.257812 C 22.371094 132.300781 18.425781 135.863281 18.425781 140.253906 C 18.425781 144.558594 22.214844 148.058594 26.957031 148.238281 C 26.621094 149.078125 26.425781 149.980469 26.425781 150.921875 C 26.425781 155.339844 30.445312 158.921875 35.402344 158.921875 L 36.28125 158.921875 C 35.53125 160.101562 35.09375 161.464844 35.09375 162.921875 C 35.09375 167.339844 39.039062 170.921875 43.902344 170.921875 L 66.285156 170.921875 C 71.148438 170.921875 75.09375 167.339844 75.09375 162.921875 C 75.09375 161.464844 74.65625 160.101562 73.90625 158.921875 L 74.785156 158.921875 C 79.742188 158.921875 83.761719 155.339844 83.761719 150.921875 C 83.761719 149.980469 83.566406 149.078125 83.230469 148.238281 C 87.972656 148.058594 91.761719 144.558594 91.761719 140.253906 C 91.761719 135.855469 87.804688 132.289062 82.914062 132.257812 C 82.914062 127.121094 82.914062 120.121094 82.914062 120.117188 C 82.917969 105.296875 94.417969 93.980469 100.558594 81.535156 Z M 66.285156 165.589844 L 43.902344 165.589844 C 42.019531 165.589844 40.425781 164.367188 40.425781 162.921875 C 40.425781 161.476562 42.019531 160.253906 43.902344 160.253906 L 66.285156 160.253906 C 68.167969 160.253906 69.761719 161.476562 69.761719 162.921875 C 69.761719 164.367188 68.167969 165.589844 66.285156 165.589844 Z M 74.785156 153.589844 L 35.402344 153.589844 C 33.429688 153.589844 31.761719 152.367188 31.761719 150.921875 C 31.761719 149.476562 33.429688 148.253906 35.402344 148.253906 L 74.785156 148.253906 C 76.757812 148.253906 78.425781 149.476562 78.425781 150.921875 C 78.425781 152.367188 76.757812 153.589844 74.785156 153.589844 Z M 86.425781 140.253906 C 86.425781 141.699219 84.789062 142.921875 82.855469 142.921875 L 27.332031 142.921875 C 25.398438 142.921875 23.761719 141.699219 23.761719 140.253906 C 23.761719 138.808594 25.398438 137.589844 27.332031 137.589844 L 82.855469 137.589844 C 84.789062 137.589844 86.425781 138.808594 86.425781 140.253906 Z M 59.195312 104.253906 C 58.640625 104.253906 58.164062 104.242188 57.761719 104.222656 L 57.761719 133.589844 C 57.761719 135.0625 56.566406 136.253906 55.09375 136.253906 C 53.621094 136.253906 52.425781 135.0625 52.425781 133.589844 L 52.425781 88.625 C 52.128906 88.636719 51.800781 88.644531 51.4375 88.644531 C 44.355469 88.644531 26.0625 86.296875 26.207031 62.015625 C 26.207031 62.015625 26.707031 61.976562 27.578125 61.976562 C 32.203125 61.976562 47.242188 63.0625 52.425781 76.742188 L 52.425781 65.5625 C 33.222656 44.894531 54.726562 25.589844 54.726562 25.589844 C 74.03125 43.800781 63.273438 59.710938 57.761719 65.707031 L 57.761719 93.660156 C 62.460938 78.746094 78.285156 77.589844 83.054688 77.589844 C 83.921875 77.589844 84.425781 77.625 84.425781 77.625 C 84.566406 101.90625 66.277344 104.253906 59.195312 104.253906 Z M 59.195312 104.253906 " fill-opacity="1" fill-rule="nonzero"/><path fill="#3f7776" d="M 62.054688 98.777344 C 65.667969 98.40625 70.410156 97.203125 73.898438 93.691406 C 76.40625 91.171875 78.015625 87.671875 78.703125 83.257812 C 75.027344 83.800781 70.105469 85.214844 66.605469 88.804688 C 64.175781 91.296875 62.652344 94.636719 62.054688 98.777344 Z M 62.054688 98.777344 " fill-opacity="1" fill-rule="nonzero"/><g clip-path="url(#b3be6a2928)"><g clip-path="url(#a6444ad76a)"><g clip-path="url(#0ad81b785b)"><path fill="#c6f7cb" d="M 486.023438 154.605469 C 491.878906 146.507812 499.597656 142.710938 505.703125 141.835938 C 511.808594 140.964844 517.511719 142.851562 524.890625 146.988281 C 532.269531 151.125 539.703125 160.777344 550.441406 159.589844 C 520.691406 197.507812 489.285156 180.570312 484.746094 159.136719 C 493.933594 157.390625 502.339844 157.707031 511.527344 160.960938 C 518.121094 163.292969 523.464844 166.15625 532.667969 164.609375 C 521.902344 163.605469 516.066406 159.367188 510.894531 157.277344 C 503.214844 154.167969 496.265625 152.773438 486.023438 154.605469 Z M 486.023438 154.605469 " fill-opacity="1" fill-rule="evenodd"/></g></g></g></svg>